# Blender 4.4.3
# www.blender.org
mtllib blood_cone.mtl
o Cylinder
v 0.000000 -1.000000 -1.000000
v 0.000000 -0.100000 1.000000
v -0.707107 -0.707107 -1.000000
v -0.070711 -0.070711 1.000000
v -1.000000 -0.000000 -1.000000
v -0.100000 -0.000000 1.000000
v -0.707107 0.707107 -1.000000
v -0.070711 0.070711 1.000000
v 0.000000 1.000000 -1.000000
v 0.000000 0.100000 1.000000
v 0.707107 0.707107 -1.000000
v 0.070711 0.070711 1.000000
v 1.000000 -0.000000 -1.000000
v 0.100000 -0.000000 1.000000
v 0.707107 -0.707107 -1.000000
v 0.070711 -0.070711 1.000000
vn -0.0000 -0.9119 0.4104
vn -0.6448 -0.6448 0.4104
vn -0.9119 -0.0000 0.4104
vn -0.6448 0.6448 0.4104
vn -0.0000 0.9119 0.4104
vn 0.6448 0.6448 0.4104
vn 0.9119 -0.0000 0.4104
vn 0.6448 -0.6448 0.4104
vt 0.500000 0.981345
vt 0.500000 0.505298
vt 0.503747 0.503747
vt 0.840362 0.840362
vt 0.505298 0.500000
vt 0.981345 0.500000
vt 0.503747 0.496254
vt 0.840362 0.159638
vt 0.500000 0.494702
vt 0.500000 0.018655
vt 0.496254 0.496254
vt 0.159638 0.159638
vt 0.494702 0.500000
vt 0.018655 0.500000
vt 0.496254 0.503747
vt 0.159638 0.840362
s 1
f 1/1/1 2/2/1 4/3/2 3/4/2
f 3/4/2 4/3/2 6/5/3 5/6/3
f 5/6/3 6/5/3 8/7/4 7/8/4
f 7/8/4 8/7/4 10/9/5 9/10/5
f 9/10/5 10/9/5 12/11/6 11/12/6
f 11/12/6 12/11/6 14/13/7 13/14/7
f 13/14/7 14/13/7 16/15/8 15/16/8
f 15/16/8 16/15/8 2/2/1 1/1/1
